<svg id="Layer_1" data-name="Layer 1" xmlns="http://www.w3.org/2000/svg" viewBox="0 0 245.43 150.26"><defs><style>.cls-1{font-size:15.01px;font-family:BerlinSansFBDemi-Bold, Berlin Sans FB Demi;font-weight:700;}.cls-2,.cls-3,.cls-33,.cls-5{fill:#fff;}.cls-2,.cls-3{stroke:#231f20;stroke-linejoin:bevel;}.cls-10,.cls-15,.cls-19,.cls-2,.cls-24,.cls-25,.cls-26,.cls-27,.cls-3,.cls-31,.cls-32,.cls-7,.cls-8,.cls-9{stroke-linecap:round;}.cls-2{stroke-width:2.77px;}.cls-3{stroke-width:3.25px;}.cls-4{font-size:8.56px;fill:#231f20;stroke:#ec1c24;stroke-width:0.25px;}.cls-10,.cls-13,.cls-14,.cls-16,.cls-17,.cls-18,.cls-20,.cls-22,.cls-23,.cls-33,.cls-34,.cls-4,.cls-7,.cls-8,.cls-9{stroke-miterlimit:10;}.cls-15,.cls-16,.cls-17,.cls-22,.cls-4{font-family:MyriadPro-Regular, Myriad Pro;}.cls-19,.cls-20,.cls-22,.cls-25,.cls-26,.cls-27,.cls-6,.cls-9{fill:#e6e7e8;}.cls-28,.cls-7,.cls-8{fill:#808184;}.cls-25,.cls-7{stroke:#808184;}.cls-10,.cls-23,.cls-7,.cls-8,.cls-9{stroke-width:2px;}.cls-10,.cls-24,.cls-26,.cls-27,.cls-31,.cls-32,.cls-8,.cls-9{stroke:#929497;}.cls-10{fill:#929497;}.cls-11,.cls-13,.cls-14,.cls-17,.cls-32{fill:#6d6e70;}.cls-12{fill:#a6a8ab;}.cls-13,.cls-14{stroke:#6d6e70;}.cls-13,.cls-15,.cls-17,.cls-22,.cls-27{stroke-width:0.5px;}.cls-14{stroke-width:0.5px;}.cls-15{font-size:14.44px;}.cls-15,.cls-16,.cls-30{fill:#58595b;}.cls-15,.cls-16,.cls-17,.cls-18,.cls-19,.cls-20,.cls-22,.cls-23{stroke:#58595b;}.cls-15,.cls-19,.cls-24,.cls-25,.cls-26,.cls-27,.cls-31,.cls-32{stroke-linejoin:round;}.cls-16{font-size:6.29px;}.cls-16,.cls-25,.cls-26{stroke-width:0.75px;}.cls-17,.cls-22{font-size:5.25px;}.cls-18,.cls-21,.cls-23,.cls-24,.cls-31{fill:none;}.cls-24{stroke-width:1.25px;}.cls-29{fill:#d0d2d3;}.cls-31{stroke-width:1.5px;stroke-dasharray:50.42 9.38 15.83 0.59;}.cls-32{stroke-width:0.06px;}.cls-33,.cls-34{stroke:#404041;}.cls-33{stroke-width:3px;}.cls-34{fill:#404041;stroke-width:1.73px;}</style></defs><title>seller</title><text class="cls-1" transform="translate(215.19 40.41) scale(0.93 1)">ICAL</text><path class="cls-2" d="M225.66,26.49h0l28.8.11Z" transform="translate(-9.25 17.11)"/><path class="cls-3" d="M212.39,26.45l-21.73.05,21.78,0Z" transform="translate(-9.25 17.11)"/><text class="cls-4" transform="translate(106.51 31.62) scale(1.05 1)">@</text><rect class="cls-5" x="117.76" y="23.59" width="43.15" height="38.81" rx="4.34"/><path class="cls-6" d="M160,37.34H137.67a2.67,2.67,0,0,1-2.86-2.43V20a2.16,2.16,0,0,1,.62-1.5,3.05,3.05,0,0,1,2.24-.92H160A2.67,2.67,0,0,1,162.84,20V34.91A2.67,2.67,0,0,1,160,37.34Z" transform="translate(-9.25 17.11)"/><line class="cls-7" x1="142.19" y1="45.6" x2="152.12" y2="53.24"/><line class="cls-7" x1="136.53" y1="45.6" x2="126.59" y2="53.24"/><line class="cls-8" x1="139.34" y1="47.05" x2="152.12" y2="36.19"/><line class="cls-9" x1="126.59" y1="36.53" x2="138.73" y2="46.58"/><rect class="cls-5" x="41.16" y="17.11" width="43.15" height="38.81" rx="5.36"/><path class="cls-9" d="M60.22,21.7l18-10.58" transform="translate(-9.25 17.11)"/><path class="cls-10" d="M60.58,22l17.31,7" transform="translate(-9.25 17.11)"/><rect class="cls-11" x="64.55" y="26.32" width="5.67" height="5.67" rx="2.51"/><rect class="cls-11" x="64.55" y="42.3" width="5.67" height="5.67" rx="2.51"/><rect class="cls-11" x="57.19" y="18.68" width="6.05" height="6.05" rx="3.03" transform="translate(-8.25 14.51) rotate(2.49)"/><path class="cls-11" d="M17,34.44V26.67a4.57,4.57,0,0,1,4.42-3.44l1.44-.08h5.3a4.18,4.18,0,0,1,.5,0h.07A4.61,4.61,0,0,1,33,26.39l.43,1.79c.75,5.84,2,6.14-3.19,7.41l-2.61.46a3.38,3.38,0,0,1-1.7.08l-6.66-.79" transform="translate(-9.25 17.11)"/><rect class="cls-12" x="11.18" y="31.62" width="9.19" height="9.16" rx="3.83"/><rect class="cls-13" x="50.27" y="68.26" width="2.12" height="21.06"/><rect class="cls-14" x="59.49" y="72.21" width="22.12" height="1.81" transform="translate(131.85 163.35) rotate(180)"/><rect class="cls-11" x="53.99" y="82.87" width="4.04" height="5.18"/><rect class="cls-11" x="59.98" y="79.9" width="3.83" height="8.16"/><rect class="cls-11" x="65.97" y="76.49" width="4.25" height="11.65"/><text class="cls-15" transform="matrix(0.86, 0.45, -0.47, 0.88, 54.05, 81.38)">/</text><text class="cls-16" transform="matrix(0.88, -0.8, 0.59, 0.81, 61.61, 77.52)">&gt;</text><text class="cls-17" transform="translate(65.97 71.42) scale(1.08 1)">$</text><rect class="cls-18" x="72.54" y="48.91" width="7.87" height="7.87" rx="3.93" transform="translate(-13.46 23.8) rotate(-4.88)"/><path class="cls-19" d="M17.8,82.73h8.76a0,0,0,0,1,0,0v4.51A3.57,3.57,0,0,1,23,90.81H17.8a0,0,0,0,1,0,0V82.73A0,0,0,0,1,17.8,82.73Z"/><path class="cls-20" d="M27.12,73.4c2.66-2.65,5.5-5.1,8.36-7.52V58.19a3.09,3.09,0,0,0-3.08-3.1H30.68A4.3,4.3,0,0,1,26.43,58a4.31,4.31,0,0,1-4.25-2.93H20.07A3.09,3.09,0,0,0,17,58.19V70.61a3.09,3.09,0,0,0,3.08,3.1h6.77A4.12,4.12,0,0,1,27.12,73.4Z" transform="translate(-9.25 17.11)"/><rect class="cls-19" x="11.15" y="77.3" width="12.72" height="0.43"/><rect class="cls-19" x="10.75" y="81.29" width="12.47" height="0.43"/><rect class="cls-19" x="10.71" y="85.27" width="11.03" height="0.38"/><path class="cls-21" d="M22.41,51.42H21.07L21,56.75l2.49,0A5.46,5.46,0,0,1,22.41,51.42Z" transform="translate(-9.25 17.11)"/><path class="cls-21" d="M31.55,51.5a5.42,5.42,0,0,1-1.19,5.33l2.09,0,0-5.34Z" transform="translate(-9.25 17.11)"/><text class="cls-17" transform="translate(15.77 72.76) scale(1.07 1)">$</text><path class="cls-18" d="M30.05,53.29h0a3.94,3.94,0,0,1-3,4.65h0a3.89,3.89,0,0,1-4.6-3h0a3.93,3.93,0,0,1,3-4.65h0A3.91,3.91,0,0,1,30.05,53.29Z" transform="translate(-9.25 17.11)"/><rect class="cls-20" x="97.12" y="69.49" width="18.65" height="19.73" rx="4.54"/><path class="cls-20" d="M110.52,52.38" transform="translate(-9.25 17.11)"/><rect class="cls-19" x="101.09" y="73.61" width="10.85" height="0.55"/><rect class="cls-19" x="100.91" y="77.98" width="10.85" height="0.55"/><rect class="cls-19" x="100.91" y="82.13" width="10.85" height="0.7"/><path class="cls-20" d="M128,68.87h0a3.94,3.94,0,0,1-3,4.65h0a3.89,3.89,0,0,1-4.6-3.06h0a3.93,3.93,0,0,1,3-4.65h0A3.89,3.89,0,0,1,128,68.87Z" transform="translate(-9.25 17.11)"/><text class="cls-22" transform="translate(113.48 88.15) scale(1.07 1)">$</text><rect class="cls-23" x="1" y="23.59" width="30.45" height="30.45" rx="14.96"/><rect class="cls-24" x="17.65" y="112.04" width="8.19" height="12.77" rx="4.1"/><rect class="cls-25" x="15.77" y="117.17" width="12.13" height="9.9" rx="3.32"/><rect class="cls-11" x="21.1" y="122" width="1.28" height="3.57"/><polygon class="cls-26" points="17.7 89.79 19.64 91.87 25.77 85.3 27.7 83.23 25.76 81.14 17.7 89.79"/><path class="cls-27" d="M27,72.25l-.07.07c-.61,1.55-1.26,3.1-1.92,4.67,1-.48,2.07-1,3.12-1.51l.75-.86C28.28,73.83,27.66,73,27,72.25Z" transform="translate(-9.25 17.11)"/><path class="cls-28" d="M222.7,100.12a.86.86,0,0,1,.85.86v3.64a.85.85,0,0,1-.85.86h-5.37a.85.85,0,0,1-.85-.86V101a.86.86,0,0,1,.85-.86h5.37m0-1.3h-5.37a2.16,2.16,0,0,0-2.16,2.16v3.64a2.16,2.16,0,0,0,2.16,2.16h5.37a2.16,2.16,0,0,0,2.16-2.16V101a2.16,2.16,0,0,0-2.16-2.16Z" transform="translate(-9.25 17.11)"/><rect class="cls-28" x="196.39" y="119.91" width="26.47" height="4.18" rx="1.93"/><path class="cls-29" d="M226.82,133.15h-7.23a2.33,2.33,0,0,1-2.35-1.82l-3.81-20.59a2.25,2.25,0,0,1,2.35-2.55h12.84a2.26,2.26,0,0,1,2.35,2.55l-4.15,22.41" transform="translate(-9.25 17.11)"/><path class="cls-29" d="M219.1,133.15h.05s0-.77,0-1.83l0-20.66c0-1.34,0-2.57,0-2.57h-.09s0,1.23,0,2.57l0,22.49" transform="translate(-9.25 17.11)"/><path class="cls-29" d="M211.38,133.15h7.33a2.36,2.36,0,0,0,2.37-1.84l3.86-20.74a2.27,2.27,0,0,0-2.37-2.57h-13a2.27,2.27,0,0,0-2.37,2.57l4.2,22.58" transform="translate(-9.25 17.11)"/><path class="cls-5" d="M212.74,127.28l-1.34-13.17a1.36,1.36,0,0,1,1.18-1.54h0a1.4,1.4,0,0,1,1.47,1.3L215.39,127a1.36,1.36,0,0,1-1.18,1.54h0A1.4,1.4,0,0,1,212.74,127.28Z" transform="translate(-9.25 17.11)"/><path class="cls-5" d="M222.92,127l1.57-13.12a1.42,1.42,0,0,1,1.44-1.31h0a1.3,1.3,0,0,1,1.09,1.52l-1.57,13.12a1.41,1.41,0,0,1-1.43,1.31h0A1.29,1.29,0,0,1,222.92,127Z" transform="translate(-9.25 17.11)"/><rect class="cls-5" x="211.21" y="119.09" width="16.11" height="2.86" rx="1.43" transform="translate(89.5 356.89) rotate(-90)"/><polygon class="cls-30" points="173.68 79.64 176.34 82.45 183.65 74.44 185.96 71.92 183.29 69.11 173.68 79.64"/><rect class="cls-28" x="193.5" y="50.94" width="4.1" height="2.29" transform="translate(84.85 -105.91) rotate(45)"/><rect class="cls-31" x="166.18" y="68.05" width="21.28" height="19.74" rx="3.38"/><polygon class="cls-32" points="175.88 83.12 171.44 84.09 172.8 79.59 175.88 83.12"/><rect class="cls-28" x="147.46" y="108.9" width="3.4" height="21.28"/><rect class="cls-28" x="156.63" y="91.13" width="3.4" height="21.28" transform="translate(47.32 277.21) rotate(-90)"/><rect class="cls-33" x="83.95" y="115.69" width="19.01" height="18.84" rx="9.42"/><rect class="cls-34" x="112.59" y="112.52" width="2.82" height="11.79" rx="1.41" transform="translate(-58.92 150.69) rotate(-51.38)"/><text class="cls-1" transform="matrix(1.04, 0, 0, 1, 180.83, 40.55)">MU</text><text class="cls-1" transform="translate(180.72 40.55) rotate(0.5) scale(1.05 1)">MU</text></svg>